<svg version="1.0" xmlns="http://www.w3.org/2000/svg"
 width="443.000000pt" height="248.000000pt" viewBox="0 0 443.000000 248.000000"
 preserveAspectRatio="xMidYMid meet">

<g transform="translate(0.000000,248.000000) scale(0.100000,-0.100000)"
fill="#000000" stroke="none">
<path d="M1975 2346 c-121 -23 -194 -75 -233 -166 -23 -54 -29 -88 -41 -235
-6 -61 -13 -118 -17 -128 -6 -16 -25 -18 -242 -16 -218 1 -237 -1 -261 -19
-16 -12 -27 -31 -29 -50 -2 -18 -4 -32 -5 -32 -1 0 -24 7 -51 15 -27 8 -79 15
-115 15 -104 -1 -171 -40 -206 -122 -21 -52 -19 -81 8 -106 31 -30 42 -28 44
9 3 46 48 135 76 154 14 9 39 15 56 13 l31 -3 -135 -254 c-74 -140 -135 -257
-135 -261 0 -7 109 -34 114 -28 2 1 36 65 75 141 41 77 79 137 87 137 7 0 34
-6 60 -12 42 -12 47 -11 60 7 21 29 18 33 -41 50 -30 9 -55 18 -55 21 0 7 51
106 67 130 l14 22 42 -21 c23 -12 61 -21 85 -22 37 0 42 -3 42 -22 0 -53 78
-84 113 -45 10 10 17 32 17 48 0 28 4 30 80 51 79 22 81 22 126 4 46 -17 47
-19 64 -87 10 -38 30 -95 45 -126 l27 -57 -38 -121 c-33 -106 -41 -123 -67
-136 -16 -9 -30 -14 -32 -12 -2 2 3 64 11 138 7 74 14 150 14 168 l0 32 -59 0
-59 0 -53 -92 c-30 -51 -75 -114 -101 -140 -27 -27 -48 -53 -48 -58 0 -15 -44
-30 -69 -23 -33 8 -26 41 39 186 33 74 60 139 60 144 0 5 -25 14 -56 20 -52 9
-56 9 -65 -11 -4 -12 -33 -77 -64 -145 -71 -159 -76 -187 -40 -229 24 -28 33
-32 78 -32 29 0 65 7 81 15 28 15 29 14 61 -22 29 -34 36 -37 97 -41 58 -4 71
-1 137 33 40 20 75 34 77 32 2 -2 -3 -23 -11 -47 -8 -24 -13 -45 -11 -47 2 -2
29 -7 60 -10 42 -4 57 -2 60 8 3 8 19 62 37 122 18 59 35 107 38 107 16 -1 51
-109 51 -156 0 -54 27 -104 55 -104 8 0 32 -35 54 -77 23 -43 66 -111 96 -152
51 -67 55 -75 40 -91 -20 -22 -19 -36 6 -61 l22 -22 -23 -127 c-21 -112 -22
-137 -13 -205 14 -96 34 -120 96 -116 45 3 71 158 57 332 -9 108 -9 115 10
128 22 15 26 51 8 69 -8 8 0 25 37 69 26 32 68 93 93 136 38 65 49 77 71 77
38 -1 96 -30 176 -90 39 -28 87 -60 107 -71 80 -41 134 -14 151 76 l6 30 -72
0 c-65 0 -82 5 -177 49 -58 27 -107 51 -109 52 -2 2 8 70 23 151 24 129 34
163 83 266 31 65 63 148 73 184 17 65 18 66 66 86 46 18 52 18 94 3 97 -34
206 -29 292 15 67 34 89 97 47 135 -19 17 -43 19 -268 24 l-246 5 -7 50 c-4
28 -11 97 -17 155 -14 139 -33 193 -91 251 -74 74 -138 91 -375 95 -131 2
-212 -1 -260 -10z m481 -49 c28 -8 60 -20 70 -26 17 -11 16 -12 -6 -5 -33 9
-329 10 -510 1 -104 -5 -140 -3 -127 4 10 6 21 8 24 5 3 -3 12 1 20 9 8 8 25
16 39 16 36 2 42 3 50 11 13 13 385 1 440 -15z m-16 -387 c0 -5 -5 -10 -11
-10 -5 0 -7 5 -4 10 3 6 8 10 11 10 2 0 4 -4 4 -10z m-734 -170 c13 -5 35 -12
47 -14 140 -28 174 -34 289 -44 73 -7 333 2 418 14 25 4 59 7 77 8 17 0 29 4
27 7 -5 9 166 38 241 41 33 1 66 -1 74 -6 9 -6 12 -5 8 1 -4 6 23 10 76 10 51
1 73 -2 57 -7 -14 -4 -67 -24 -119 -44 -52 -20 -100 -35 -108 -32 -8 3 -11 2
-8 -3 7 -12 -31 -24 -46 -15 -7 4 -9 3 -6 -3 8 -13 -89 -48 -266 -98 -111 -31
-142 -36 -235 -36 -59 0 -132 5 -162 11 -30 6 -67 13 -81 15 -66 9 -253 67
-326 101 -17 7 -36 14 -43 14 -6 0 -8 5 -4 12 4 6 3 8 -3 5 -14 -9 -186 57
-176 67 4 4 0 4 -9 1 -9 -4 -25 -2 -35 5 -23 14 274 4 313 -10z m-411 -60 c3
-5 1 -10 -4 -10 -6 0 -11 5 -11 10 0 6 2 10 4 10 3 0 8 -4 11 -10z m454 -285
c0 -19 -21 26 -45 97 -13 39 -24 79 -23 87 0 16 68 -166 68 -184z m967 131
c-17 -59 -75 -189 -76 -170 0 6 11 36 24 67 14 30 32 81 41 112 9 31 19 54 22
51 3 -2 -2 -30 -11 -60z m-891 4 c-23 -4 -31 -13 -43 -48 -7 -23 -17 -40 -22
-37 -10 6 -40 93 -40 116 0 16 5 16 67 -4 58 -19 63 -23 38 -27z m860 13 c-10
-54 -28 -79 -21 -30 2 20 1 37 -5 37 -16 0 -10 18 9 23 9 3 19 5 21 6 2 0 0
-16 -4 -36z m-658 -49 c115 -22 309 -22 378 0 28 9 53 16 57 16 4 0 -17 -24
-46 -52 -93 -91 -97 -185 -9 -212 21 -7 22 -5 16 43 -4 36 -1 64 11 95 24 61
118 143 102 89 -3 -10 -21 -109 -41 -221 -20 -112 -42 -220 -49 -241 -37 -103
-138 -270 -200 -330 -32 -31 -38 -33 -58 -22 -40 22 -177 220 -178 257 0 6 12
17 27 25 24 13 83 91 83 111 0 4 -7 8 -15 8 -8 0 -15 -4 -15 -8 0 -18 -42 -52
-64 -52 -46 0 -49 20 -17 121 42 135 45 153 26 189 -25 49 -98 66 -143 34 -13
-9 -25 -14 -27 -12 -3 2 7 46 22 96 19 65 31 91 40 88 7 -3 52 -13 100 -22z
m-536 -288 c-7 -79 -14 -112 -27 -127 -33 -36 -114 -17 -114 28 0 10 6 14 19
10 28 -7 56 26 43 49 -8 14 0 33 36 86 25 37 46 67 48 65 2 -1 -1 -51 -5 -111z
m429 64 c11 -20 -5 -110 -19 -110 -3 0 -16 24 -29 53 -21 49 -22 52 -6 64 25
18 42 16 54 -7z m-33 -156 c-6 -6 -57 103 -56 120 0 6 14 -17 31 -52 17 -35
28 -65 25 -68z m129 -261 c40 -73 79 -129 128 -180 16 -18 25 -33 19 -33 -25
0 -163 192 -189 263 -14 38 6 13 42 -50z m375 -29 c-47 -81 -127 -184 -142
-184 -6 0 10 23 34 51 25 29 67 89 94 135 26 45 49 79 51 75 1 -5 -15 -39 -37
-77z m-215 -321 c-35 -114 -48 -292 -26 -359 15 -45 44 -46 60 -1 17 43 25
258 12 325 -5 28 -6 52 -1 52 14 0 21 -86 17 -226 -5 -188 -35 -247 -89 -174
-32 42 -35 147 -9 283 12 64 26 117 32 117 5 0 7 -8 4 -17z m33 -175 c1 -99
-14 -198 -29 -198 -27 0 -29 158 -3 283 17 86 18 88 25 51 4 -21 7 -83 7 -136z"/>
<path d="M2700 1723 c-30 -8 -73 -19 -95 -24 -22 -6 -56 -14 -75 -19 -133 -35
-250 -51 -340 -46 -52 2 -100 6 -106 8 -7 1 -13 -1 -13 -7 -6 -38 291 -35 427
4 17 5 32 6 32 3 0 -8 -104 -38 -160 -47 -164 -26 -364 2 -646 91 -79 25 -100
12 -24 -14 36 -13 74 -27 85 -32 55 -24 203 -60 309 -75 123 -18 223 -16 316
7 65 16 152 56 146 67 -4 5 11 15 31 21 21 6 47 15 58 20 11 5 50 18 88 30 37
12 67 24 67 26 0 8 -44 2 -100 -13z"/>
<path d="M3871 1733 l-54 -24 7 -94 7 -95 -25 11 c-35 16 -108 -12 -140 -54
-40 -52 -49 -86 -55 -211 -6 -108 -8 -120 -30 -137 -28 -23 -35 -23 -55 -3
-13 13 -16 37 -14 132 2 101 0 121 -17 149 -32 54 -102 57 -157 5 -24 -22 -28
-23 -28 -8 0 17 -6 18 -52 12 -28 -4 -55 -9 -60 -12 -4 -3 -8 -65 -8 -139 0
-109 -3 -141 -19 -178 -20 -46 -45 -63 -75 -51 -20 8 -20 33 -4 211 6 73 9
135 6 138 -12 12 -108 -7 -108 -21 0 -17 -16 -18 -26 -3 -10 17 -106 6 -136
-17 -113 -84 -147 -335 -54 -399 27 -20 91 -19 125 1 15 9 36 29 46 44 l19 28
17 -28 c33 -54 107 -52 164 6 l35 35 0 -31 c0 -34 16 -38 81 -20 l36 10 7 163
c8 175 17 207 60 207 32 0 36 -14 36 -143 0 -90 4 -119 19 -147 39 -74 131
-63 188 24 25 37 34 44 39 32 8 -22 56 -46 91 -46 40 0 91 34 110 75 16 33 33
46 33 25 0 -5 11 -17 25 -26 55 -36 144 21 170 109 19 64 19 78 0 71 -8 -4
-15 -16 -15 -28 0 -35 -28 -66 -60 -66 -36 0 -36 -1 -51 250 -6 107 -14 211
-18 231 l-6 36 -54 -24z m-45 -254 c3 -6 10 -62 15 -125 8 -102 8 -118 -8
-145 -19 -32 -61 -40 -82 -15 -35 42 -33 217 4 273 16 24 59 32 71 12z m-862
-165 c19 -18 19 -11 2 -148 -12 -93 -18 -112 -40 -134 -22 -22 -28 -24 -50
-14 -60 27 -38 238 32 292 30 24 36 25 56 4z"/>
</g>
</svg>
